<svg xmlns="http://www.w3.org/2000/svg" version="1.1" xmlns:xlink="http://www.w3.org/1999/xlink" xmlns:svgjs="http://svgjs.dev/svgjs" width="1000" height="1000" viewBox="0 0 1000 1000"><rect width="1000" height="1000" fill="#471aa0"></rect><g transform="matrix(0.7,0,0,0.7,149.57576145044413,379.18918720910335)"><svg viewBox="0 0 396 137" data-background-color="#471aa0" preserveAspectRatio="xMidYMid meet" height="345" width="1000" xmlns="http://www.w3.org/2000/svg" xmlns:xlink="http://www.w3.org/1999/xlink"><g id="tight-bounds" transform="matrix(1,0,0,1,0.23999780803444537,0.03449848459018767)"><svg viewBox="0 0 395.52 136.9310031619818" height="136.9310031619818" width="395.52"><g><svg viewBox="0 0 676.2472430585335 234.12017945370533" height="136.9310031619818" width="395.52"><g transform="matrix(1,0,0,1,280.7272430585336,16.200497839334332)"><svg viewBox="0 0 395.52 201.71918377503667" height="201.71918377503667" width="395.52"><g id="textblocktransform"><svg viewBox="0 0 395.52 201.71918377503667" height="201.71918377503667" width="395.52" id="textblock"><g><svg viewBox="0 0 395.52 153.7466030368763" height="153.7466030368763" width="395.52"><g transform="matrix(1,0,0,1,0,0)"><svg width="395.52" viewBox="3.549999952316284 -36.150001525878906 115.23999786376953 44.80000305175781" height="153.7466030368763" data-palette-color="#ffffff"><path d="M3.65 0L3.65-26.3 7.75-26.3 7.75 0 3.65 0ZM3.55-31.4L3.55-36.15 7.8-36.15 7.8-31.4 3.55-31.4ZM21.5 0.6Q17.25 0.6 15.15-1.63 13.05-3.85 13.05-7.1L13.05-7.1Q13.05-7.7 13.07-7.93 13.1-8.15 13.1-8.2L13.1-8.2 17.4-8.2 17.4-7.7Q17.4-5.35 18.6-4.17 19.8-3 21.7-3L21.7-3Q23.4-3 24.52-4.03 25.65-5.05 25.65-6.9L25.65-6.9Q25.65-8.3 24.95-9.2 24.25-10.1 23.25-10.63 22.25-11.15 20.45-11.8L20.45-11.8Q18.25-12.55 16.9-13.3 15.55-14.05 14.6-15.53 13.65-17 13.65-19.4L13.65-19.4Q13.65-22.85 15.87-24.88 18.1-26.9 21.85-26.9L21.85-26.9Q25.4-26.9 27.4-24.83 29.4-22.75 29.4-19.7L29.4-19.7 29.35-18.75 25.1-18.75 25.1-19.2Q25.1-20.95 24.25-22.13 23.4-23.3 21.45-23.3L21.45-23.3Q19.5-23.3 18.7-22.2 17.9-21.1 17.9-19.7L17.9-19.7Q17.9-18 19.07-17.18 20.25-16.35 22.7-15.55L22.7-15.55Q24.95-14.75 26.4-13.98 27.85-13.2 28.87-11.65 29.9-10.1 29.9-7.5L29.9-7.5Q29.9-3.45 27.62-1.43 25.35 0.6 21.5 0.6L21.5 0.6ZM42 0.6Q37.74 0.6 35.64-1.63 33.55-3.85 33.55-7.1L33.55-7.1Q33.55-7.7 33.57-7.93 33.59-8.15 33.59-8.2L33.59-8.2 37.89-8.2 37.89-7.7Q37.89-5.35 39.09-4.17 40.3-3 42.2-3L42.2-3Q43.89-3 45.02-4.03 46.14-5.05 46.14-6.9L46.14-6.9Q46.14-8.3 45.45-9.2 44.75-10.1 43.75-10.63 42.75-11.15 40.95-11.8L40.95-11.8Q38.74-12.55 37.39-13.3 36.05-14.05 35.09-15.53 34.14-17 34.14-19.4L34.14-19.4Q34.14-22.85 36.37-24.88 38.59-26.9 42.34-26.9L42.34-26.9Q45.89-26.9 47.89-24.83 49.89-22.75 49.89-19.7L49.89-19.7 49.84-18.75 45.59-18.75 45.59-19.2Q45.59-20.95 44.75-22.13 43.89-23.3 41.95-23.3L41.95-23.3Q39.99-23.3 39.2-22.2 38.39-21.1 38.39-19.7L38.39-19.7Q38.39-18 39.57-17.18 40.74-16.35 43.2-15.55L43.2-15.55Q45.45-14.75 46.89-13.98 48.34-13.2 49.37-11.65 50.39-10.1 50.39-7.5L50.39-7.5Q50.39-3.45 48.12-1.43 45.84 0.6 42 0.6L42 0.6ZM55.39 0L55.39-36.15 59.49-36.15 59.49-23.55 59.79-23.55Q61.69-26.9 65.69-26.9L65.69-26.9Q68.84-26.9 70.52-25.03 72.19-23.15 72.19-18.95L72.19-18.95 72.19 0 68.09 0 68.09-18.65Q68.09-21.2 67.14-22.23 66.19-23.25 64.39-23.25L64.39-23.25Q62.34-23.25 60.92-21.3 59.49-19.35 59.49-16.05L59.49-16.05 59.49 0 55.39 0ZM86.59 0.6Q81.94 0.6 79.56-2.78 77.19-6.15 77.19-13.15L77.19-13.15Q77.19-20.15 79.56-23.53 81.94-26.9 86.59-26.9L86.59-26.9Q91.24-26.9 93.61-23.53 95.99-20.15 95.99-13.15L95.99-13.15Q95.99-6.15 93.61-2.78 91.24 0.6 86.59 0.6L86.59 0.6ZM86.59-3.05Q91.69-3.05 91.69-12.2L91.69-12.2 91.69-14.1Q91.69-23.25 86.59-23.25L86.59-23.25Q81.49-23.25 81.49-14.1L81.49-14.1 81.49-12.2Q81.49-3.05 86.59-3.05L86.59-3.05ZM100.99 8.65L100.99-26.3 104.09-26.3 104.64-23.25 104.89-23.25Q105.84-25.05 107.34-25.98 108.84-26.9 110.64-26.9L110.64-26.9Q114.54-26.9 116.66-23.5 118.79-20.1 118.79-13.1L118.79-13.1Q118.79-6.3 116.61-2.85 114.44 0.6 110.94 0.6L110.94 0.6Q109.04 0.6 107.51-0.18 105.99-0.95 105.34-2.3L105.34-2.3 105.09-2.3 105.09 8.65 100.99 8.65ZM109.79-3.05Q112.19-3.05 113.34-5.2 114.49-7.35 114.49-12.2L114.49-12.2 114.49-14.1Q114.49-18.95 113.34-21.1 112.19-23.25 109.79-23.25L109.79-23.25Q105.09-23.25 105.09-14.1L105.09-14.1 105.09-12.2Q105.09-3.05 109.79-3.05L109.79-3.05Z" opacity="1" transform="matrix(1,0,0,1,0,0)" fill="#ffffff" class="undefined-text-0" data-fill-palette-color="primary" id="text-0"></path></svg></g></svg></g><g transform="matrix(1,0,0,1,0,190.0424860954099)"><svg viewBox="0 0 232.209792 11.676697679626749" height="11.676697679626749" width="232.209792"><g transform="matrix(1,0,0,1,0,0)"><svg width="232.209792" viewBox="4 -33.25 771.510009765625 38.79999923706055" height="11.676697679626749" data-palette-color="#ffffff"><path d="M20.9-6.25L20.9-6.25Q20.9 0.75 12.45 0.75 4 0.75 4-6.25L4-6.25 4-10.5 7.5-10.5 7.5-6.05Q7.5-4.25 8.75-3.25 10-2.25 12.45-2.25 14.9-2.25 16.15-3.25 17.4-4.25 17.4-5.98 17.4-7.7 17.03-8.72 16.65-9.75 15.5-10.9L15.5-10.9 6.7-19.5Q5.15-21.05 4.58-22.53 4-24 4-26.25L4-26.25Q4-29.6 6.08-31.43 8.15-33.25 12.35-33.25L12.35-33.25Q20.4-33.25 20.4-26.25L20.4-26.25 20.4-22 16.9-22 16.9-26.45Q16.9-28.25 15.73-29.25 14.55-30.25 12.2-30.25 9.85-30.25 8.68-29.25 7.5-28.25 7.5-26.5 7.5-24.75 7.85-23.75 8.2-22.75 9.4-21.65L9.4-21.65 18.35-13.05Q19.8-11.45 20.35-9.98 20.9-8.5 20.9-6.25ZM33.4-15L33.4 0 29.9 0 29.9-32.5 33.4-32.5 33.4-18 43.25-18 43.25-32.5 46.75-32.5 46.75 0 43.25 0 43.25-15 33.4-15ZM73-26.25L73-26.25 73-6.25Q73-2.9 70.87-1.07 68.75 0.75 64.52 0.75 60.3 0.75 58.15-1.07 56-2.9 56-6.25L56-6.25 56-26.25Q56-29.6 58.12-31.43 60.25-33.25 64.47-33.25 68.7-33.25 70.84-31.43 73-29.6 73-26.25ZM69.5-6.25L69.5-6.25 69.5-26.25Q69.5-30.25 64.5-30.25 59.5-30.25 59.5-26.25L59.5-26.25 59.5-6.25Q59.5-2.25 64.5-2.25 69.5-2.25 69.5-6.25ZM85.24-10L85.24 0 81.74 0 81.74-32.5 89.29-32.5Q93.19-32.5 95.22-30.65 97.24-28.8 97.24-25.5L97.24-25.5 97.24-17Q97.24-13.65 95.24-11.83 93.24-10 89.29-10L89.29-10 85.24-10ZM93.74-17L93.74-17 93.74-25.5Q93.74-27.4 92.59-28.45 91.44-29.5 89.29-29.5L89.29-29.5 85.24-29.5 85.24-13 89.29-13Q93.74-13 93.74-17ZM132.64-6.25L132.64-6.25Q132.64 0.75 124.19 0.75 115.74 0.75 115.74-6.25L115.74-6.25 115.74-10.5 119.24-10.5 119.24-6.05Q119.24-4.25 120.49-3.25 121.74-2.25 124.19-2.25 126.64-2.25 127.89-3.25 129.14-4.25 129.14-5.98 129.14-7.7 128.76-8.72 128.39-9.75 127.24-10.9L127.24-10.9 118.44-19.5Q116.89-21.05 116.31-22.53 115.74-24 115.74-26.25L115.74-26.25Q115.74-29.6 117.81-31.43 119.89-33.25 124.09-33.25L124.09-33.25Q132.14-33.25 132.14-26.25L132.14-26.25 132.14-22 128.64-22 128.64-26.45Q128.64-28.25 127.46-29.25 126.29-30.25 123.94-30.25 121.59-30.25 120.41-29.25 119.24-28.25 119.24-26.5 119.24-24.75 119.59-23.75 119.94-22.75 121.14-21.65L121.14-21.65 130.09-13.05Q131.54-11.45 132.09-9.98 132.64-8.5 132.64-6.25ZM145.14-25.4L145.14 0 141.64 0 141.64-32.5 143.14-32.5 144.39-29.3Q145.44-31.1 147.14-32.18 148.84-33.25 150.84-33.25L150.84-33.25Q155.89-33.25 157.29-29.6L157.29-29.6Q159.69-33.25 163.59-33.25L163.59-33.25Q170.64-33.25 170.64-26.25L170.64-26.25 170.64 0 167.14 0 167.14-26.25Q167.14-30.25 163.54-30.25L163.54-30.25Q161.44-30.25 159.66-28.55 157.89-26.85 157.89-25.25L157.89-25.25 157.89 0 154.39 0 154.39-26.25Q154.39-30.25 150.79-30.25L150.79-30.25Q148.69-30.25 146.91-28.63 145.14-27 145.14-25.4L145.14-25.4ZM195.63-26.25L195.63 0 194.13 0 192.83-3.2Q191.78-1.4 190.08-0.33 188.38 0.75 186.33 0.75L186.33 0.75Q179.13 0.75 179.13-6.25L179.13-6.25 179.13-11.25Q179.13-18.25 186.33-18.25L186.33-18.25 192.13-18.25 192.13-26.45Q192.13-28.25 190.98-29.25 189.83-30.25 187.58-30.25L187.58-30.25Q183.13-30.25 183.13-26.45L183.13-26.45 183.13-23.5 179.63-23.5 179.63-26.25Q179.63-29.6 181.61-31.43 183.58-33.25 187.58-33.25 191.58-33.25 193.61-31.43 195.63-29.6 195.63-26.25L195.63-26.25ZM192.13-7.1L192.13-15.25 186.33-15.25Q184.23-15.25 183.43-14.2 182.63-13.15 182.63-11.25L182.63-11.25 182.63-6.25Q182.63-4.35 183.43-3.3 184.23-2.25 186.33-2.25 188.43-2.25 190.23-3.88 192.03-5.5 192.13-7.1L192.13-7.1ZM208.63-22.85L208.63 0 205.13 0 205.13-32.5 206.63-32.5 208.08-28.8Q209.68-33.25 213.18-33.25L213.18-33.25Q219.13-33.25 219.13-26.75L219.13-26.75 219.13-23.5 215.78-23.5 215.78-26.95Q215.78-30.25 213.03-30.25L213.03-30.25Q211.38-30.25 210.01-28.35 208.63-26.45 208.63-22.85L208.63-22.85ZM224.38-5.75L224.38-32.5 235.38-32.5 235.38-29.5 227.88-29.5 227.88-5.55Q227.88-4.15 228.6-3.2 229.33-2.25 230.65-2.25 231.98-2.25 232.68-3.18 233.38-4.1 233.38-5.55L233.38-5.55 233.38-11.5 236.88-11.5 236.88-5.75Q236.88-2.6 235.2-0.93 233.53 0.75 230.68 0.75 227.83 0.75 226.1-0.93 224.38-2.6 224.38-5.75L224.38-5.75ZM256.13-6.25L256.13-6.25 256.13-9 259.63-9 259.63-6.25Q259.63-2.9 257.58-1.07 255.53 0.75 251.43 0.75 247.33 0.75 245.23-1.07 243.13-2.9 243.13-6.25L243.13-6.25 243.13-26.25Q243.13-29.6 245.18-31.43 247.23-33.25 251.33-33.25 255.43-33.25 257.53-31.43 259.63-29.6 259.63-26.25L259.63-26.25 259.63-15.25 246.63-15.25 246.63-6.25Q246.63-2.25 251.38-2.25 256.13-2.25 256.13-6.25ZM246.63-26.25L246.63-26.25 246.63-18.25 256.13-18.25 256.13-26.25Q256.13-30.25 251.38-30.25 246.63-30.25 246.63-26.25ZM272.37-22.85L272.37 0 268.87 0 268.87-32.5 270.37-32.5 271.82-28.8Q273.42-33.25 276.92-33.25L276.92-33.25Q282.87-33.25 282.87-26.75L282.87-26.75 282.87-23.5 279.52-23.5 279.52-26.95Q279.52-30.25 276.77-30.25L276.77-30.25Q275.12-30.25 273.75-28.35 272.37-26.45 272.37-22.85L272.37-22.85ZM288.12-0.45L288.12-5.5 292.62-5.5 292.62-0.75 290.17 5.55 288.57 5.25 289.32 0 288.12-0.45ZM316.87-25.25L316.87 0 313.37 0 313.37-32.5 314.87-32.5 316.12-29.25Q318.51-33.25 322.76-33.25L322.76-33.25Q330.12-33.25 330.12-26.25L330.12-26.25 330.12 0 326.62 0 326.62-26.25Q326.62-28.15 325.79-29.2 324.97-30.25 322.76-30.25 320.56-30.25 318.72-28.55 316.87-26.85 316.87-25.25L316.87-25.25ZM355.86-26.25L355.86-26.25 355.86-6.25Q355.86-2.9 353.74-1.07 351.61 0.75 347.39 0.75 343.16 0.75 341.01-1.07 338.86-2.9 338.86-6.25L338.86-6.25 338.86-26.25Q338.86-29.6 340.99-31.43 343.11-33.25 347.34-33.25 351.56-33.25 353.71-31.43 355.86-29.6 355.86-26.25ZM352.36-6.25L352.36-6.25 352.36-26.25Q352.36-30.25 347.36-30.25 342.36-30.25 342.36-26.25L342.36-26.25 342.36-6.25Q342.36-2.25 347.36-2.25 352.36-2.25 352.36-6.25ZM364.36-5.75L364.36-32.5 375.36-32.5 375.36-29.5 367.86-29.5 367.86-5.55Q367.86-4.15 368.59-3.2 369.31-2.25 370.63-2.25 371.96-2.25 372.66-3.18 373.36-4.1 373.36-5.55L373.36-5.55 373.36-11.5 376.86-11.5 376.86-5.75Q376.86-2.6 375.19-0.93 373.51 0.75 370.66 0.75 367.81 0.75 366.09-0.93 364.36-2.6 364.36-5.75L364.36-5.75ZM398.86-15L398.86 0 395.36 0 395.36-32.5 398.86-32.5 398.86-18 408.71-18 408.71-32.5 412.21-32.5 412.21 0 408.71 0 408.71-15 398.86-15ZM437.7-26.25L437.7 0 436.2 0 434.9-3.2Q433.85-1.4 432.15-0.33 430.45 0.75 428.4 0.75L428.4 0.75Q421.2 0.75 421.2-6.25L421.2-6.25 421.2-11.25Q421.2-18.25 428.4-18.25L428.4-18.25 434.2-18.25 434.2-26.45Q434.2-28.25 433.05-29.25 431.9-30.25 429.65-30.25L429.65-30.25Q425.2-30.25 425.2-26.45L425.2-26.45 425.2-23.5 421.7-23.5 421.7-26.25Q421.7-29.6 423.68-31.43 425.65-33.25 429.65-33.25 433.65-33.25 435.68-31.43 437.7-29.6 437.7-26.25L437.7-26.25ZM434.2-7.1L434.2-15.25 428.4-15.25Q426.3-15.25 425.5-14.2 424.7-13.15 424.7-11.25L424.7-11.25 424.7-6.25Q424.7-4.35 425.5-3.3 426.3-2.25 428.4-2.25 430.5-2.25 432.3-3.88 434.1-5.5 434.2-7.1L434.2-7.1ZM450.7-22.85L450.7 0 447.2 0 447.2-32.5 448.7-32.5 450.15-28.8Q451.75-33.25 455.25-33.25L455.25-33.25Q461.2-33.25 461.2-26.75L461.2-26.75 461.2-23.5 457.85-23.5 457.85-26.95Q457.85-30.25 455.1-30.25L455.1-30.25Q453.45-30.25 452.08-28.35 450.7-26.45 450.7-22.85L450.7-22.85ZM475.25 0L475.25 0 467.2 0 467.2-32.5 475.25-32.5Q479.15-32.5 481.17-30.65 483.2-28.8 483.2-25.5L483.2-25.5 483.2-7Q483.2-3.65 481.2-1.83 479.2 0 475.25 0ZM479.7-7L479.7-7 479.7-25.5Q479.7-27.4 478.55-28.45 477.4-29.5 475.25-29.5L475.25-29.5 470.7-29.5 470.7-3 475.25-3Q479.7-3 479.7-7ZM504.7-6.25L504.7-6.25 504.7-9 508.2-9 508.2-6.25Q508.2-2.9 506.15-1.07 504.1 0.75 500 0.75 495.9 0.75 493.8-1.07 491.7-2.9 491.7-6.25L491.7-6.25 491.7-26.25Q491.7-29.6 493.75-31.43 495.8-33.25 499.9-33.25 504-33.25 506.1-31.43 508.2-29.6 508.2-26.25L508.2-26.25 508.2-15.25 495.2-15.25 495.2-6.25Q495.2-2.25 499.95-2.25 504.7-2.25 504.7-6.25ZM495.2-26.25L495.2-26.25 495.2-18.25 504.7-18.25 504.7-26.25Q504.7-30.25 499.95-30.25 495.2-30.25 495.2-26.25ZM520.94-22.85L520.94 0 517.44 0 517.44-32.5 518.94-32.5 520.39-28.8Q521.99-33.25 525.49-33.25L525.49-33.25Q531.44-33.25 531.44-26.75L531.44-26.75 531.44-23.5 528.09-23.5 528.09-26.95Q528.09-30.25 525.34-30.25L525.34-30.25Q523.69-30.25 522.32-28.35 520.94-26.45 520.94-22.85L520.94-22.85ZM561.19-6.25L561.19-6.25 561.19-32.5 564.69-32.5 564.69-6.25Q564.69-2.25 569.31-2.25 573.94-2.25 573.94-6.25L573.94-6.25 573.94-32.5 577.44-32.5 577.44-6.25Q577.44-2.95 575.34-1.1 573.24 0.75 569.11 0.75 564.99 0.75 562.94-2.15L562.94-2.15Q560.99 0.75 556.81 0.75 552.64 0.75 550.54-1.1 548.44-2.95 548.44-6.25L548.44-6.25 548.44-32.5 551.94-32.5 551.94-6.25Q551.94-2.25 556.56-2.25 561.19-2.25 561.19-6.25ZM590.43-32.5L590.43 0 586.93 0 586.93-32.5 590.43-32.5ZM599.68-5.75L599.68-32.5 610.68-32.5 610.68-29.5 603.18-29.5 603.18-5.55Q603.18-4.15 603.91-3.2 604.63-2.25 605.96-2.25 607.28-2.25 607.98-3.18 608.68-4.1 608.68-5.55L608.68-5.55 608.68-11.5 612.18-11.5 612.18-5.75Q612.18-2.6 610.51-0.93 608.83 0.75 605.98 0.75 603.13 0.75 601.41-0.93 599.68-2.6 599.68-5.75L599.68-5.75ZM622.68-15L622.68 0 619.18 0 619.18-32.5 622.68-32.5 622.68-18 632.53-18 632.53-32.5 636.03-32.5 636.03 0 632.53 0 632.53-15 622.68-15ZM661.02-32.5L661.02 0 657.52 0 657.52-32.5 661.02-32.5ZM686.92-6.25L686.92-6.25Q686.92 0.75 678.47 0.75 670.02 0.75 670.02-6.25L670.02-6.25 670.02-10.5 673.52-10.5 673.52-6.05Q673.52-4.25 674.77-3.25 676.02-2.25 678.47-2.25 680.92-2.25 682.17-3.25 683.42-4.25 683.42-5.98 683.42-7.7 683.05-8.72 682.67-9.75 681.52-10.9L681.52-10.9 672.72-19.5Q671.17-21.05 670.6-22.53 670.02-24 670.02-26.25L670.02-26.25Q670.02-29.6 672.1-31.43 674.17-33.25 678.37-33.25L678.37-33.25Q686.42-33.25 686.42-26.25L686.42-26.25 686.42-22 682.92-22 682.92-26.45Q682.92-28.25 681.75-29.25 680.57-30.25 678.22-30.25 675.87-30.25 674.7-29.25 673.52-28.25 673.52-26.5 673.52-24.75 673.87-23.75 674.22-22.75 675.42-21.65L675.42-21.65 684.37-13.05Q685.82-11.45 686.37-9.98 686.92-8.5 686.92-6.25ZM699.42-15L699.42 0 695.92 0 695.92-32.5 699.42-32.5 699.42-18 709.27-18 709.27-32.5 712.77-32.5 712.77 0 709.27 0 709.27-15 699.42-15ZM739.02-26.25L739.02-26.25 739.02-6.25Q739.02-2.9 736.89-1.07 734.77 0.75 730.54 0.75 726.32 0.75 724.17-1.07 722.02-2.9 722.02-6.25L722.02-6.25 722.02-26.25Q722.02-29.6 724.14-31.43 726.27-33.25 730.49-33.25 734.72-33.25 736.87-31.43 739.02-29.6 739.02-26.25ZM735.52-6.25L735.52-6.25 735.52-26.25Q735.52-30.25 730.52-30.25 725.52-30.25 725.52-26.25L725.52-26.25 725.52-6.25Q725.52-2.25 730.52-2.25 735.52-2.25 735.52-6.25ZM751.26-10L751.26 0 747.76 0 747.76-32.5 755.31-32.5Q759.21-32.5 761.24-30.65 763.26-28.8 763.26-25.5L763.26-25.5 763.26-17Q763.26-13.65 761.26-11.83 759.26-10 755.31-10L755.31-10 751.26-10ZM759.76-17L759.76-17 759.76-25.5Q759.76-27.4 758.61-28.45 757.46-29.5 755.31-29.5L755.31-29.5 751.26-29.5 751.26-13 755.31-13Q759.76-13 759.76-17ZM775.26-5.5L775.26 0 771.76 0 771.76-5.5 775.26-5.5ZM771.51-20.25L771.51-32.5 775.51-32.5 775.51-20.25 774.76-10.5 772.26-10.5 771.51-20.25Z" opacity="1" transform="matrix(1,0,0,1,0,0)" fill="#ffffff" class="undefined-text-1" data-fill-palette-color="secondary" id="text-1"></path></svg></g></svg></g></svg></g></svg></g><g><svg viewBox="0 0 244.43135999999998 234.12017945370533" height="234.12017945370533" width="244.43135999999998"><g><svg xmlns="http://www.w3.org/2000/svg" xmlns:xlink="http://www.w3.org/1999/xlink" version="1.1" x="0" y="0" viewBox="0.5719999670982361 1.6030000448226929 48.85499954223633 46.79408264160156" enable-background="new 0 0 50 50" xml:space="preserve" height="234.12017945370533" width="244.43135999999998" class="icon-icon-0" data-fill-palette-color="accent" id="icon-0"><g fill="#ffffff" data-fill-palette-color="accent"><g fill="#ffffff" data-fill-palette-color="accent"><g fill="#ffffff" data-fill-palette-color="accent"><line fill="#ffffff" x1="42.187" y1="30.881" x2="16.181" y2="39.004" data-fill-palette-color="accent"></line><polygon fill="#ffffff" points="41.73,29.426 15.726,37.543 16.637,40.461 42.643,32.338    " data-fill-palette-color="accent"></polygon></g><g fill="#ffffff" data-fill-palette-color="accent"><path fill="#ffffff" d="M18.572 42.535c0.061 0.605-0.122 1.195-0.513 1.664-0.388 0.471-0.934 0.756-1.539 0.814-1.254 0.119-2.364-0.807-2.485-2.057-0.055-0.605 0.129-1.199 0.516-1.666 0.388-0.469 0.935-0.758 1.542-0.813 0.607-0.059 1.196 0.123 1.666 0.514C18.229 41.379 18.515 41.926 18.572 42.535zM15.808 37.434c-1.421 0.137-2.701 0.816-3.609 1.91-0.905 1.096-1.334 2.48-1.201 3.9 0.276 2.928 2.881 5.082 5.807 4.811 1.42-0.133 2.7-0.811 3.605-1.908 0.913-1.098 1.338-2.482 1.204-3.898-0.13-1.416-0.811-2.699-1.907-3.607C18.611 37.732 17.226 37.303 15.808 37.434z" data-fill-palette-color="accent"></path></g><g fill="#ffffff" data-fill-palette-color="accent"><line fill="#ffffff" x1="13.436" y1="30.992" x2="39.554" y2="39.439" data-fill-palette-color="accent"></line><rect x="12.773" y="33.689" transform="matrix(-0.9514 -0.3078 0.3078 -0.9514 40.8641 76.8801)" fill="#ffffff" width="27.446" height="3.055" data-fill-palette-color="accent"></rect></g><g fill="#ffffff" data-fill-palette-color="accent"><path fill="#ffffff" d="M32.707 42.547c-0.14 1.416 0.282 2.803 1.186 3.902 0.902 1.1 2.179 1.783 3.599 1.922 2.926 0.289 5.538-1.857 5.828-4.781 0.286-2.928-1.862-5.541-4.786-5.83-1.416-0.137-2.801 0.281-3.903 1.188C33.529 39.846 32.847 41.129 32.707 42.547zM38.236 40.795c1.249 0.127 2.167 1.244 2.044 2.494-0.123 1.248-1.241 2.168-2.491 2.049-0.604-0.063-1.15-0.357-1.538-0.824-0.388-0.473-0.565-1.068-0.505-1.674 0.058-0.604 0.353-1.148 0.822-1.537C37.034 40.918 37.63 40.738 38.236 40.795z" data-fill-palette-color="accent"></path></g><g fill="#ffffff" data-fill-palette-color="accent"><polygon fill="#ffffff" points="11.115,19.867 5.497,2.681 5.155,1.64 4.058,1.63 0.6,1.603 0.572,4.656 4.033,4.685 2.594,3.63      8.214,20.812    " data-fill-palette-color="accent"></polygon></g><g fill="#ffffff" data-fill-palette-color="accent"><polygon fill="#ffffff" points="17.158,26.744 37.898,26.744 40.767,19.382 15.07,19.474    " data-fill-palette-color="accent"></polygon><path fill="#ffffff" d="M5.756 13.544L12.45 32.75l29.955-0.223 7.022-18.983H5.756zM40.365 28.826l-0.379 0.973h-1.044H16.009h-1.149l-0.318-1.104L11.579 18.38l-0.558-1.939 2.021-0.008 29.954-0.109 2.243-0.01-0.815 2.088L40.365 28.826z" data-fill-palette-color="accent"></path></g></g><g fill="#ffffff" data-fill-palette-color="accent"><path fill-rule="evenodd" clip-rule="evenodd" fill="#ffffff" d="M32.577 11.763h3.868L32.577 8.57l-3.866-3.191L24.847 8.57l-3.865 3.193h3.81H32.577z" data-fill-palette-color="accent"></path></g></g></svg></g></svg></g></svg></g><defs></defs></svg><rect width="395.52" height="136.9310031619818" fill="none" stroke="none" visibility="hidden"></rect></g></svg></g></svg>